<?xml version="1.0" encoding="utf-8"?>
<!-- Generator: Adobe Illustrator 24.0.1, SVG Export Plug-In . SVG Version: 6.00 Build 0)  -->
<svg version="1.1" id="Layer_1" xmlns="http://www.w3.org/2000/svg" xmlns:xlink="http://www.w3.org/1999/xlink" x="0px" y="0px"
	 viewBox="0 0 366 485" style="enable-background:new 0 0 366 485;" xml:space="preserve">
<style type="text/css">
	.st0{fill:#333333;}
</style>
<path class="st0" d="M187.05,64.15c0.02,0.04,0.03,0.07,0.05,0.11c0.56,1.33,1.1,2.73,0.94,4.16c-0.51,4.35-6.38,5.23-10.75,5.02
	c-21.92-1.05-43.93-0.17-65.7,2.63c-4.14,0.53-8.71,1.38-11.25,4.7c-2.59,3.39-2.11,8.17-1,12.29c1.43,5.3,4.02,10.69,8.78,13.42
	c4.9,2.82,10.96,2.24,16.6,1.75c16.69-1.44,33.88-1.2,49.69,4.32c3.06,1.07-17.63,2.14-20.24,2.72c-6.48,1.44-10.46,7.54-11.41,13.9
	c-2.33,15.55-2.72,32.52,2.6,47.54c2.9,8.17,7.92,15.8,15.14,20.6c7.65,5.08,17.1,6.62,26.27,7.24
	c37.81,2.56,76.04-2.52,113.98-1.97c15.61,0.23,12.85-7.14,12.29-19.96c-0.57-12.93-1.04-25.88,1.71-38.63
	c3.8-17.6,11.16-34.44,21.7-49.04c3.39-4.7,4.89-9.94-2.26-11.77c-2.63-0.67-5.4-0.38-8.1-0.08c-24.46,2.7-50.01,4.79-73.28-4.96
	c-20.81-8.72-36.5-25.3-48.12-44.29c-6.55-10.71-12.47-22.66-23.27-29.07c-1.32-0.79-2.82-1.49-4.34-1.29
	c-2.91,0.38-4.36,3.7-4.91,6.58c-1.79,9.36,0.15,19.07,3.42,28.02C178.84,47.03,183.37,55.41,187.05,64.15z"/>
<path class="st0" d="M320.53,177.23c0.29,8.16,0.79,16.77,4.2,24.3c0.88,1.95,2.11,3.99,4.13,4.68c2.86,0.98,5.84-1.15,7.76-3.48
	c3.05-3.7,4.99-8.18,6.77-12.63c8.6-21.52,14.9-44.43,16.87-67.58c0.55-6.49,2.57-38.98-11.73-27.47
	c-9.33,7.51-16.21,23.21-20.28,34.26C322.62,144.59,319.94,160.97,320.53,177.23z"/>
<path class="st0" d="M103.19,442.67c0.21-14.12-11.34-29.9-29.85-30.32c-14.09-0.32-31.01,12.76-30.9,30.28
	c0.1,16.61,13.46,30.38,30.03,30.52C89.5,473.3,103,459.9,103.19,442.67z"/>
<path class="st0" d="M141.72,479.56c14.2-0.04,26.65-10.14,29.52-23.95c1.5-7.22,0.52-14.09-2.93-20.6
	c-3.41-6.43-9.57-9.91-15.18-13.96c-0.28-0.2-0.66-0.24-1-0.36c-22.27-7.93-43.41,10.63-40.58,32.4
	C113.41,467.29,125.92,479.73,141.72,479.56z"/>
<path class="st0" d="M183.81,426.59c16.92,0.07,30.64-13.36,30.67-30.12c0.03-14.11-10.6-30.31-30.78-30.41
	c-16.23-0.09-29.5,13.56-30.05,30.11C153.1,412.5,169.57,427.29,183.81,426.59z"/>
<path class="st0" d="M193.5,290.04c1.81,0.11,3.11,0.17,4.4,0.28c3.14,0.27,6.07-0.41,8.93-1.71c14.29-6.48,21.33-22.41,16.42-37.23
	c-4.95-14.95-19.72-23.32-35.37-20.03c-11.99,2.52-21.47,12.51-23.39,24.64c-1.99,12.59,4.05,25.1,14.87,31.29
	C183.99,289.93,188.82,290.81,193.5,290.04z"/>
<path class="st0" d="M163.65,328.32c0.09,16.62,13.91,31.99,34.22,29.86c13.64-1.43,24.26-12.39,26.2-26.31
	c1.92-13.76-6.72-26.92-18.25-31.78c-3.83-1.62-19.47-1.67-23.31-0.08C171,304.74,163.62,315.82,163.65,328.32z"/>
<path class="st0" d="M64.24,321.03c-0.2-11.8-4.89-20.29-13.53-26.57c-10.63-7.73-29.21-6.99-39.79,5.4
	c-14.3,16.75-6.8,41.64,12.89,48.43c1.61,0.56,3.46,0.53,5.21,0.55c3.05,0.03,6.12-0.33,9.15-0.11c2.8,0.2,5.44-0.08,7.93-1.27
	C57.61,341.96,63.42,332.66,64.24,321.03z"/>
<path class="st0" d="M32.32,358.62c-7.37,0.56-14.59,3.38-19.29,8.49c-5.42,5.89-8.01,13.91-7.68,21.84
	c0.5,12.05,8.64,22.76,20.42,26.4c12.69,3.92,23.63-0.02,31.97-9.8c10.1-11.83,7.91-31.01-4-40.87
	C47.79,359.75,39.93,358.04,32.32,358.62z"/>
<path class="st0" d="M32.88,150.4c16.28,0.49,28.9-13.49,28.88-28.64c-0.02-12.78-10.3-28.99-29.71-28.68
	c-14.96,0.24-28.02,13.59-27.83,28.81C4.42,138.77,18.52,151.01,32.88,150.4z"/>
<path class="st0" d="M33.52,215.8c13.71,1.87,28.95-10.84,29.25-27.59c0.27-15.39-12.2-28.53-26.87-29.3
	c-18.22-0.95-30.4,14.09-30.68,27.99C4.91,202,17.73,216.99,33.52,215.8z"/>
<path class="st0" d="M33.16,223.36c-3.13,0.4-6.41,0.33-9.37,1.28C9.45,229.21,1.12,245,5.31,259.49
	c3.03,10.48,9.9,17.51,20.46,20.04c10.52,2.52,20.02,0.22,27.92-7.8c12.77-12.97,10.16-36.01-7.46-45.51
	C42.15,224.03,37.8,223.27,33.16,223.36z"/>
<path class="st0" d="M56.22,35.64C41.45,35.78,29.31,48.2,29.67,63.17c0.35,14.41,10.48,26.79,27.5,26.8
	C71.7,89.97,84.41,77.32,83.9,62.9C83.35,47.22,72.81,36.31,56.22,35.64z"/>
<path class="st0" d="M138.11,65.59c3.68-0.28,6.86-2.8,7.84-6.35c0.01-0.02,0.01-0.04,0.02-0.06c2.7-9.86,3.07-19.26-4.15-27.8
	c-5.64-6.67-12.43-10.48-21.12-11.7c-18.15-2.56-38.46,17.77-31.66,36c0.42,1.13,0.42,2.46,0.97,3.51c1.69,3.2,3.5,6.35,5.39,9.44
	c1.07,1.75,2.71,1.98,4.76,1.7c11.21-1.55,22.43-2.95,33.66-4.33C135.26,65.82,136.69,65.7,138.11,65.59z"/>
<path class="st0" d="M174.52,64.92c0.44-0.41,0.43-1.1,0.37-1.7c-0.3-3.26-1-6.48-1.96-9.61c-0.72-2.35-1.5-6.11-3.47-7.76
	c-1.6-1.34-4.03-0.81-5.94,0.05c-7.3,3.28-11.95,9.91-13.97,17.49c-0.43,1.63,0.4,1.66,1.74,1.76c1.17,0.08,2.35,0.09,3.53,0.09
	c6.08,0,12.16,0.02,18.25,0.05C173.57,65.29,174.14,65.27,174.52,64.92z"/>
<path class="st0" d="M216.58,214.91c1.41-1.38,2.49-2.99,3.06-4.83c0.1-0.3-14.27-0.08-15.49-0.08c-5.29,0-10.58,0-15.87,0
	c-4.03,0-8.65-0.57-12.6,0.04c2.76,2.9,7.07,5.31,10.58,7.22c3.74,2.03,7.8,3.56,12.07,3.87
	C203.9,221.54,211.99,219.42,216.58,214.91z"/>
</svg>
