<svg xmlns="http://www.w3.org/2000/svg" viewBox="0 0 1280 1280"><defs><style>.cls-1{fill:#333;}</style></defs><title>Artboard 3</title><g id="Layer_2" data-name="Layer 2"><path class="cls-1" d="M475.88,888.11V873.93C476,878.67,476,883.39,475.88,888.11Z"/><path class="cls-1" d="M1007.8,313.18a223.4,223.4,0,0,1-3.89-33.74c-.39-8.62-3.82-9.42-13.11-7.82a2039.86,2039.86,0,0,1-312.32,29c-129.65,2.17-256.71-7.55-379.81-29-9-1.55-12.42-.78-12.48,7.68-.06,8.17-1.44,16.46-2.24,24.77-1.69,17.53-1.68,17.49,17.6,20.85,8.53,1.49,17,3.18,25.53,4.79,42.53,5.35,85,12.07,128.42,15.48,26.22,2.06,52.45,4.64,78.87,6.1a1967.25,1967.25,0,0,0,216.13.45c68.81-3.78,137.26-9.92,204.6-20.64a67.32,67.32,0,0,1,7.15-.4c11.62-2,23.15-4.23,34.85-5.9C1005.13,323.64,1009.44,321.38,1007.8,313.18Z"/><path class="cls-1" d="M309.39,559.53a20.07,20.07,0,0,1-.24,2.7c-1.77,7.46,2.23,9.1,9.58,9.18,10.82.1,638.68,4.2,647.79,5,13.12,1.1,17.57-1.89,15.78-14.76-4.14-30.06-3.35-30.55-36.33-31-10.3-.12-11.61-3.78-12.17-11.22C932.23,498,930,476.89,928,456l-111.31-.45c1,20.84,1.8,41.94,3.32,63.27.55,7.5-.35,11.19-10.54,11q-55.77-1.21-111.25-.7c-10.09.1-11.28-3.55-11.31-11-.09-21.25-.94-42.27-1.49-63.05l-86.81-.38c-.23,20.73-.77,41.69-.54,62.89.07,7.46-1,11.11-11.09,10.88q-55-1.22-109.93-.7c-10,.11-10.94-3.55-10.52-11,1.18-21.11,1.61-42,2.33-62.65l-108.61-.5c-1.64,21-3.46,42.25-4.85,63.74-.4,6.21-1.53,9.52-10,9.6-10.92.11-25.41-5.39-31.93,2.48C307.6,536.39,310.41,549.19,309.39,559.53Z"/><path class="cls-1" d="M332.07,406.52c10.37-.3,20.7.19,31.06.35l109,.4,343.19,1.18,111.71.37c10.68-.09,21.33-.52,32.05-.15,7.27.25,10.51-1.27,9.51-8.25-2.16-15-3.54-29.92-5.21-44.69-36.32,4.48-72.59,9.2-109,13.35-22.24,2.53-44.58,5-67.06,6.05-55.65,2.55-111.22,6.4-166.89,4.59-64.26-2.09-128.21-4.68-191.26-12.12-34.25-4-68.22-8.55-102-13.16-1.41,14.51-2.52,29.17-4.39,43.9C321.89,405.2,325.05,406.71,332.07,406.52Z"/><path class="cls-1" d="M540.22,911.14l-.4,21.33c-97.62,10.22-191.4,37-279.4,77.94l1-12.74,7.84-91,57.53,1c.12-1.27.26-2.56.37-3.84q2.08-21.32,4.08-42.3,9.66-135,18.5-258.39,56.37.47,113,.93L452.11,863.24c-.17,7.45-.16,14.93-.3,22.44-.1,5.47-.27,11-.67,16.43-.06.93-.12,1.86-.2,2.78a39.45,39.45,0,0,0-.14,4.76l89.42,1.49Z"/><path class="cls-1" d="M1031,1012.35v.09c.41,4.17-3.62,6.82-7.56,5-87.15-40.83-178.47-68.59-272.2-81.44l-.23-6.83a13.71,13.71,0,0,1,14.12-14.28l76.7,1.27q-.51-14.83-1-29.54-.28-8.69-.58-17.32L825.43,607l115.93,1q11,125.63,23,263.13c.6,5.66,1.31,11.35,2,17.05,1,8.38,1.91,16.78,2.32,25.18a40.41,40.41,0,0,0,.49,4.89l52.37.87Z"/></g></svg>