<svg xmlns="http://www.w3.org/2000/svg" viewBox="0 0 1280 1280"><title>Artboard 4</title><g id="Layer_2" data-name="Layer 2"><path d="M799.53,834c8.87,4,10.25,16.16,2.75,22.33-36.3,29.86-78.42,43.8-123,50-147.43,20.5-287.29-79-315.87-223.12-29.54-149,57.75-291.1,203.59-331.38,110.57-30.54,229,10,299.12,102.41,69.42,91.44,77.35,215,19.39,312.71-6.68,11.25-12.25,33-29.61,23.44-18.64-10.22-1.35-25,5-36.35,95.2-170.73-19.76-377.28-214-384-128.66-4.49-241.21,92.86-259.53,224.48-17.1,122.84,66.82,246.88,188.46,277.38,70,17.54,136.28,7.84,198.43-29.35C782.23,837.7,790.69,830,799.53,834Z"/><path d="M540.89,624.75c0-26.57.4-53.08.58-75.08.29-35.31.86-35.86,34.73-36.41,11-.18,22,0,36.44,0,.89-13.1.54-33.87.18-46.67a11.15,11.15,0,0,1,11-11.45l77.4-.93a15.22,15.22,0,0,1,15.42,15.24c0,24.78-.06,73.2-.06,98.17,16.87,0,30.72.38,44.54-.1,19-.65,29.07,7,28.92,27.09-.33,44.28-.11,88.57-.09,132.85,0,15.62-6.22,25.73-23.23,25.71q-141.12-.21-282.25-.83a9.16,9.16,0,0,1-2.61-.41,16.24,16.24,0,0,1-11.44-15.73V642.35a17,17,0,0,1,16.77-16.94C504.48,625.21,521.29,626.38,540.89,624.75Zm144.45,98.1v-244H645.53v244ZM573.11,542.63V722.52H612V542.63Zm186.35,56H719.29v126l40.17-2ZM499.67,654.52v67.94h39.39V654.52Z"/><path d="M639.83,994.45c-53,.36-103.3-11.26-151.43-32.93-7-3.16-14.91-6.21-19.78-11.65-3.4-3.8-4.21-12.2-2.55-17.37,1-3,9.52-5.78,14-5,7.42,1.38,14.27,5.75,21.38,8.83,222.75,96.37,468.26-55.6,479.4-297.73,3.35-72.77-16-140.62-57.45-201-5.85-8.53-17.52-15.14-27.81-18.16-25-7.34-39.08-22.69-36.17-43.93C862,356.44,880,341,898.76,341.74c22.34.91,35.16,19,37.11,46.25.85,12,6.77,24.62,13.44,35,124.21,192.88,48.48,447.93-161,540.46C741.09,984.31,691.64,995.14,639.83,994.45Z"/><path d="M271.22,636.68c.17-268.34,258.49-447.41,498.36-357,13.34,5,38.31,7.42,32,25.92-8.28,24.34-28.53,4.93-41.84.12-138.94-50.24-291.94-8.46-384,105.89-91.5,113.6-100.86,272.12-23.39,394.75,8.93,14.14,17.18,25.82,37.66,27.11,22.3,1.4,34.84,22.35,31.34,42.87A38,38,0,0,1,380.82,908c-20.64-1.61-34-18.12-36.06-40.64-1.13-12.18-4-25.69-10.52-35.64C292.79,768.75,272.63,699.72,271.22,636.68Z"/></g></svg>