<?xml version="1.0" encoding="utf-8"?>
<!-- Generator: Adobe Illustrator 24.0.1, SVG Export Plug-In . SVG Version: 6.00 Build 0)  -->
<svg version="1.1" id="Layer_1" xmlns="http://www.w3.org/2000/svg" xmlns:xlink="http://www.w3.org/1999/xlink" x="0px" y="0px"
	 viewBox="0 0 434 615" style="enable-background:new 0 0 434 615;" xml:space="preserve">
<style type="text/css">
	.st0{fill:#333333;}
</style>
<g>
	<path class="st0" d="M411.19,438.68c-25.73-102.73-50.87-205.38-72.65-309.03c-3.97-18.9-8.67-37.61-16.06-55.6
		c-6.84-16.63-19.77-24.86-36.48-27.99c-58.38-10.91-117.23-18.2-176.48-22.22c-22.42-1.52-47.37-8.19-69.05,0.72
		C-3.42,42.59,16.93,111.54,21.2,145.95c11.08,89.2,27.4,177.56,41.24,266.35c3.67,23.4,8.18,48.5,25.02,65.15
		c12.96,12.81,31.38,18.52,49.43,21.07c18.05,2.55,36.43,2.39,54.36,5.64c-18.2-7.94-26.58-31.31-45.45-37.5
		c-8.7-2.85-18.53-1.56-26.8-5.49c-13.04-6.2-17.15-22.42-19.78-36.62C82.26,334.01,65.4,243.44,49.07,152.8
		c-4.66-25.87-12.02-53-13.71-79.23c-2.59-40.28,41.96-36.2,69.74-32.85c34.74,4.18,69.46,8.53,104.22,12.54
		c20.76,2.5,41.84,3.68,62.48,6.9c30.42,4.74,34.13,28.31,40.97,54.25c8.02,30.43,15.37,61.03,22.5,91.67
		c14.1,60.58,27.37,121.38,43.4,181.49c4.93,18.5,9.13,37.18,13.54,55.8c2.89,12.21,9.41,29.6-6.52,35.81
		c-7.91,3.08-16.78,1.35-25.07-0.47c-3.61-0.79-8.08-1.3-10.36,1.62c-1.22,1.56-1.38,3.7-1.23,5.67
		c0.68,8.87,6.93,16.82,14.99,20.59c6.32,2.95,13.56,3.51,20.44,2.2c1.9-0.36,3.77-0.86,5.59-1.49
		c14.66-5.09,24.69-20.48,25.77-35.62C416.63,460.55,413.9,449.51,411.19,438.68z"/>
	<path class="st0" d="M354.51,526.96c-6.18,0.82-12.56,1.61-18.31,3.85c-24.29,9.48-44.44,24.71-59.6,46
		c-3.55,5-5.95,11.03-7.85,16.91c-1.76,5.46,0.24,7.32,7.55,7.28c1.5-0.38,4.66-0.73,7.4-1.97c6.89-3.12,13.84-6.24,20.32-10.1
		c16.8-9.98,31.01-23.33,45.52-36.22c4.23-3.75,7.94-8.11,11.69-12.38c2.49-2.83,4.34-6.06,2.3-10.03
		C361.56,526.48,357.75,526.52,354.51,526.96z"/>
	<path class="st0" d="M288.42,545.99c13.25-12.04,28.95-21.59,46.2-26.63c5.82-1.7,11.8-2.91,17.43-5.17
		c0.55-0.22,1.14-0.5,1.51-0.94c0.12-0.15,0.21-0.31,0.27-0.49c0.23-0.71-0.12-1.46-0.46-2.12c-16.36-31.43-25.47-62.14-34.81-96.2
		c-5.11-18.66-14.23-39.67-33.18-47.83c-10.79-4.65-23.08-4.95-34.61-2.71c-10.78,2.1-54.41,14.53-49.44,31.89
		c0.68,2.39,2.67,4.14,3.97,6.25c1.3,2.11,1.66,5.34-0.41,6.71c-2.63,1.74-5.82-1.19-7.51-3.86c-15.1-23.89-19.35-52.72-31.13-78.16
		c1.89-1.59,3.57-3.48,4.94-5.67c4.72-7.52,4.51-17.01,1.3-25.28c-1.8-4.64-4.55-8.89-7.9-12.2c-11.86-11.71-33.59-14.35-45.43-1.19
		c-7.07,7.85-8.44,19.87-3.05,30.43c5.18,10.19,13.2,16.79,23.95,19.26c0.76,11.98,2.52,23.88,5.18,35.59
		c5.74,25.31,15.96,50.18,28.4,72.36c1,1.79,12.7,18.93,2.65,17.57c-1.95-0.26-3.4-1.88-4.66-3.39c-1.91-2.28-3.81-4.57-5.73-6.84
		c-5.15,6.34-3.72,17.41,1.03,23.9c3.48,4.76,7.61,9.3,12.26,12.91c15.72,12.18,32.83,23.13,43.88,40.11
		c13.03,20.02,18.09,46.4,32.24,65.12C266.86,575.06,274.23,558.88,288.42,545.99z M122.52,304.61
		c-3.02-11.42,3.79-21.26,15.32-23.83c15-3.34,28.55,10.71,28.42,25.23c-0.04,4.4-1.54,8.84-4.35,12.18
		c-1.33-2.38-2.74-4.73-4.27-7.03c-2.26-3.39-5.1-6.88-9.1-7.61c-8.54-1.56-9.12,11.22-8.91,19.18
		C131.57,319.63,124.61,312.52,122.52,304.61z"/>
	<path class="st0" d="M211.74,298.32c-1.73-0.13-3.54-0.2-5.2,0.17c-3.1,0.7-5.64,2.4-5.76,5.93c-0.12,3.36,2.36,4.95,5.16,5.49
		c4.14,0.79,8.37,1.3,12.58,1.53c19.9,1.05,39.81,1.89,59.7,2.93c11.56,0.61,23.11,1.54,34.68,2.12c5.46,0.27,8.22-1.5,8.46-4.71
		c0.26-3.55-2.24-5.43-7.91-5.85c-17.39-1.3-34.78-2.6-52.16-3.89c0-0.01,0-0.03,0-0.04C244.78,300.77,228.26,299.52,211.74,298.32z
		"/>
	<path class="st0" d="M295.17,205.8c-4.09-0.38-8.19-0.68-12.29-0.99c-30.05-2.27-60.09-4.58-90.14-6.77
		c-2.8-0.2-5.76-0.1-8.45,0.61c-2.62,0.69-4.55,2.72-4.34,5.8c0.2,2.95,2.27,4.5,4.85,4.94c4.78,0.8,9.6,1.5,14.43,1.74
		c14.8,0.74,29.61,1.23,40.59,1.68c18.1,1.23,32.39,2.23,46.67,3.16c2.86,0.18,5.74,0.26,8.58,0.04c2.97-0.24,5.45-1.58,5.39-5.02
		C300.4,207.72,298.3,206.08,295.17,205.8z"/>
	<path class="st0" d="M276.07,107.6c-3.08-0.4-6.19-0.58-9.3-0.82c-31.67-2.39-63.34-4.77-95.01-7.11c-2.09-0.16-4.3-0.21-6.28,0.33
		c-2.74,0.75-5.06,2.44-5.14,5.67c-0.07,3.34,2.26,4.93,5.12,5.5c3.53,0.71,7.13,1.28,10.72,1.45c15.92,0.78,31.85,1.39,46.91,2.03
		c12.79,0.91,24.7,1.83,36.64,2.57c5.33,0.33,10.7,0.49,16.04,0.39c2.87-0.04,5.12-1.64,5.15-4.82
		C280.96,109.74,279.04,107.99,276.07,107.6z"/>
	<path class="st0" d="M127.62,234.84c22.03,2.83,37.28-16.71,28.26-36.98c-2.86-6.42-3.58-10.85,1.47-15.83
		c1.62-1.61,1.33-3.75-0.6-5.21c-2.1-1.59-3.93-1-5.47,1c-1.57,2.04-3.2,4.05-4.48,5.67c-4.81-2.21-9.07-4.5-13.58-6.15
		c-10.99-4.05-23.16-1.1-30.52,7.08c-7.07,7.85-8.44,19.87-3.05,30.43C105.47,226.27,114.83,233.2,127.62,234.84z M121.37,182.8
		c7.66-1.31,15.69,1.2,20.73,6.69c-2.8,3.54-5.54,7.23-8.59,10.64c-0.59,0.65-2.71,0.7-3.62,0.16c-2.12-1.25-3.87-3.13-5.92-4.53
		c-1.83-1.26-4.31-2.1-5.56,0.19c-0.64,1.18,0.12,3.9,1.18,5.09c2.3,2.57,5.09,4.77,7.9,6.81c4.33,3.16,8.02,2.77,11.55-1.26
		c2.93-3.34,5.53-6.99,8.29-10.51c5.82,5.37,5.59,19.18-2.32,25.43c-4.08,3.23-8.72,4.71-13.87,4.66
		c-11.38-0.12-22.16-8.53-25.07-19.53C103.04,195.2,109.74,184.78,121.37,182.8z"/>
	<path class="st0" d="M136.98,78.39c-2-1.42-3.75-0.75-5.18,1.07c-1.6,2.03-3.21,4.05-4.54,5.73c-4.87-2.21-9.2-4.73-13.86-6.2
		c-11.17-3.53-21.61-2-29.87,6.87c-8.04,8.63-8.57,18.91-4.05,29.24c5.39,12.3,15.08,19.62,28.47,21.42
		c22.14,2.98,37.51-16.84,28.27-37.17c-2.86-6.28-3.37-10.63,1.5-15.5C139.48,82.09,139.09,79.88,136.98,78.39z M119.76,126.5
		c-15.48,5.83-34.35-7.43-33.94-23.96C86,95.05,89.56,89.48,96.39,86.2c7.33-3.52,18.59-2.87,26.18,4.97
		c-2.83,3.58-5.56,6.97-8.21,10.42c-1.36,1.77-2.65,1.88-4.35,0.37c-1.96-1.73-3.92-3.62-6.22-4.72c-1.35-0.65-3.36,0.1-5.07,0.21
		c0.28,1.68-0.01,3.9,0.96,4.94c2.63,2.79,5.64,5.29,8.78,7.5c3.93,2.77,7.45,2.35,10.66-1.25c3.13-3.5,5.89-7.31,8.85-11.03
		C135.76,107.2,131.39,122.11,119.76,126.5z"/>
</g>
</svg>
