<svg xmlns="http://www.w3.org/2000/svg" viewBox="0 0 1280 1280"><defs><style>.cls-1{fill:#333;}</style></defs><title>Artboard 2</title><g id="Layer_2" data-name="Layer 2"><path class="cls-1" d="M358.71,602.72l-96.49,6.43-77.7,261.37a18.67,18.67,0,0,0,16.68,24A101.07,101.07,0,0,1,218.14,897c12.26,2.82,39.08-52.84,54.09-86.56a1.59,1.59,0,0,1,3,1.09c-9.49,33.11-23.64,87.65-18.17,101,6.8,16.59,46.68-36.3,59.65-25.93,23.31,18.65,32.83,36.58,44.08,36.3,0,0,44.27-174.74,22.38-301.17A23.18,23.18,0,0,0,358.71,602.72Z"/><path class="cls-1" d="M1128.21,870.52l-77.7-261.37L954,602.72a23.17,23.17,0,0,0-24.42,19C907.7,748.17,952,922.91,952,922.91c11.26.28,20.77-17.65,44.09-36.3,13-10.37,52.84,42.52,59.64,25.93,5.48-13.38-8.68-67.92-18.17-101a1.59,1.59,0,0,1,3-1.09c15,33.72,41.83,89.38,54.09,86.56a101.07,101.07,0,0,1,16.94-2.44A18.67,18.67,0,0,0,1128.21,870.52Z"/><path class="cls-1" d="M896.1,606.32c-20.28-7.19-59.32-12.56-67.2-14.22-44.78-9.48-95-12.69-130.36-44.79l-3.28-3,18.18-163.61A58.65,58.65,0,0,0,702.06,339l-32.73-43.65-6.64,3.32a8.91,8.91,0,0,0-3.47,12.82l28.26,53.88L679.7,438l-9.85-62.52a8,8,0,0,0-8-7.49H650.91a8,8,0,0,0-8,7.49L633,438l-7.78-72.6,28.26-53.88A8.91,8.91,0,0,0,650,298.71l-6.64-3.32L610.67,339a58.65,58.65,0,0,0-11.38,41.68l18.18,163.61-3.28,3c-35.31,32.1-85.58,35.31-130.36,44.79-7.88,1.66-46.92,7-67.2,14.22a11.43,11.43,0,0,0-7.29,13.22c3.47,15.84,9.51,50.41,4.65,81.66a22.48,22.48,0,0,0-.05,7.5c3.61,19.7,26.15-1.64,33.56-5.68q15.56-8.44,31.05-16.91,68.16-37.18,136.33-74.36l37.7-28.84a16.22,16.22,0,0,0,3.79-4.1,16,16,0,0,0,3.78,4.1l37.7,28.84Q766,648.92,834.18,686.11q15.51,8.46,31.05,16.91c7.41,4,29.95,25.38,33.56,5.68a22.48,22.48,0,0,0,0-7.5c-4.86-31.25,1.18-65.82,4.65-81.66A11.42,11.42,0,0,0,896.1,606.32Z"/></g></svg>